<?xml version="1.0" encoding="UTF-8"?>
<svg width="149px" height="149px" viewBox="0 0 149 149" version="1.1" xmlns="http://www.w3.org/2000/svg" xmlns:xlink="http://www.w3.org/1999/xlink">
    <!-- Generator: Sketch 51.3 (57544) - http://www.bohemiancoding.com/sketch -->
    <title>MacBook Pro 15"</title>
    <desc>Created with Sketch.</desc>
    <defs></defs>
    <g id="MacBook-Pro-15&quot;" stroke="none" stroke-width="1" fill="none" fill-rule="evenodd">
        <circle id="Oval" fill="#FFC08F" fill-rule="nonzero" cx="74.5" cy="74.5" r="74.5"></circle>
        <polyline id="Path-2" stroke="#FFFFFF" stroke-width="3.6" stroke-linecap="round" stroke-linejoin="round" fill-rule="nonzero" points="70.1038961 113 36 113 36 32 78.7792208 32 78.7792208 113 117 113 117 70.5 88.5 70.5"></polyline>
        <rect id="Rectangle" fill="#FFFFFF" fill-rule="nonzero" x="47" y="43" width="6" height="11" rx="2"></rect>
        <rect id="Rectangle-Copy" fill="#FFFFFF" fill-rule="nonzero" x="61" y="43" width="6" height="11" rx="2"></rect>
        <rect id="Rectangle-Copy-3" fill="#FFFFFF" fill-rule="nonzero" x="47" y="61" width="6" height="11" rx="2"></rect>
        <rect id="Rectangle-Copy-2" fill="#FFFFFF" fill-rule="nonzero" x="61" y="61" width="6" height="11" rx="2"></rect>
        <rect id="Rectangle-Copy-7" fill="#FFFFFF" fill-rule="nonzero" x="47" y="79" width="6" height="11" rx="2"></rect>
        <rect id="Rectangle-Copy-6" fill="#FFFFFF" fill-rule="nonzero" x="61" y="79" width="6" height="11" rx="2"></rect>
        <rect id="Rectangle-Copy-2" fill="#FFFFFF" fill-rule="nonzero" x="101" y="79" width="6" height="11" rx="2"></rect>
        <rect id="Rectangle-Copy-2" fill="#FFFFFF" fill-rule="nonzero" x="93" y="96" width="10" height="18" rx="2"></rect>
        <rect id="Rectangle-Copy-5" fill="#FFFFFF" fill-rule="nonzero" x="52" y="96" width="10" height="18" rx="2"></rect>
        <rect id="Rectangle-Copy-4" fill="#FFFFFF" fill-rule="nonzero" x="88" y="79" width="6" height="11" rx="2"></rect>
    </g>
</svg>